PathFileType	4	(X/Y/Z)	C:\Users\chris\Desktop\Pose2Sim_Project\videos\pitch1_Sports2D\pitch1_Sports2D_px_person00.trc
DataRate	CameraRate	NumFrames	NumMarkers	Units	OrigDataRate	OrigDataStartFrame	OrigNumFrames
30.0	30.0	6	22	m	30.0	82	110
Frame#	Time	Hip			RHip			RKnee			RAnkle			RBigToe			RSmallToe			RHeel			LHip			LKnee			LAnkle			LBigToe			LSmallToe			LHeel			Neck			Head			Nose			RShoulder			RElbow			RWrist			LShoulder			LElbow			LWrist		
		X1	Y1	Z1	X2	Y2	Z2	X3	Y3	Z3	X4	Y4	Z4	X5	Y5	Z5	X6	Y6	Z6	X7	Y7	Z7	X8	Y8	Z8	X9	Y9	Z9	X10	Y10	Z10	X11	Y11	Z11	X12	Y12	Z12	X13	Y13	Z13	X14	Y14	Z14	X15	Y15	Z15	X16	Y16	Z16	X17	Y17	Z17	X18	Y18	Z18	X19	Y19	Z19	X20	Y20	Z20	X21	Y21	Z21	X22	Y22	Z22
82	2.7333333333333334	776.7356551022881	468.12910993847277	0.0	743.5872529443354	478.36986675078396	0.0	659.3995846423818	597.5429836072683	0.0	518.5615447663963	602.8860991355056	0.0	468.2428793884777	649.4492478933079	0.0	460.5653198794598	637.9853269434798	0.0	502.7730689293802	595.2921910271008	0.0	807.0577171461777	478.4043509332521	0.0	891.3893082136897	543.0056926914992	0.0	925.8754761897169	672.8953674944789	0.0	972.4604430611253	703.3910679011412	0.0	971.7901825046042	695.9481254819281	0.0	908.969439355155	692.6741743113478	0.0	773.9363387598297	282.6303965235923	0.0	774.444077554855	190.6022621165145	0.0	802.7383247788287	237.40870615760053	0.0	726.4213761249309	298.4331820721817	0.0	647.7678042056259	290.24465459478455	0.0	650.403918084431	250.06261528716698	0.0	821.1169789203373	308.24882941938296	0.0	850.8329187729847	392.55424566606825	0.0	895.6303688683439	392.66850126485497	0.0
83	2.7666666666666666	795.9768306181722	468.1462233245592	0.0	767.5604368959946	476.14496269355647	0.0	692.6452406200824	605.545168620655	0.0	551.7327391801396	601.6923922373174	0.0	505.1360238494392	644.9255859468789	0.0	498.2599122242741	634.581207696629	0.0	535.4103351814267	590.5341482860013	0.0	822.9665479243806	480.2672917543222	0.0	895.149808524952	546.0745104178936	0.0	933.2260026888513	674.7607329674757	0.0	982.9674219204496	703.1370936212309	0.0	978.9991652655622	696.2823338785422	0.0	918.0052502229936	694.8070317776942	0.0	808.8927341882512	286.3605012362362	0.0	806.604222264516	200.32156558047097	0.0	832.4460905326135	244.57013273850097	0.0	790.7518162498952	292.0386975925917	0.0	745.10749388806	268.80805273537254	0.0	715.7320516083947	240.1597424651458	0.0	828.1491104394067	319.5314414314563	0.0	844.8482661364595	417.5985769919119	0.0	886.8959032306757	423.2185571848728	0.0
84	2.8	803.8578603632926	462.11436110980674	0.0	781.8168124866158	468.4625000629666	0.0	726.5268982409805	613.1440988980992	0.0	586.1947766732653	604.9835065054683	0.0	544.0547493846458	646.0303912238081	0.0	537.5192910392475	636.5775711447736	0.0	570.2327197076222	591.4367143297861	0.0	825.3359477803002	473.111007632577	0.0	894.3720996076914	546.6107614975699	0.0	934.5084712395384	675.1165719431889	0.0	987.145632662243	701.8361596032483	0.0	980.9818025809116	694.8340686235242	0.0	921.5352940202217	695.815893632107	0.0	834.7818494523015	285.1739227406841	0.0	834.8946046631327	206.59566097913032	0.0	861.8329992007385	247.27506755768644	0.0	848.9571222354505	284.80512239716376	0.0	856.0939482011468	251.6889686191595	0.0	829.356699488028	229.1559023782514	0.0	822.9814511663686	320.81405252364425	0.0	831.7205420341957	414.8424576254089	0.0	874.9194201708582	432.25968053838784	0.0
85	2.8333333333333335	802.6807881194592	451.34550784945003	0.0	789.5890232819321	456.51822841239914	0.0	756.1273297454771	613.4286160893038	0.0	619.7524865280177	606.0166556140992	0.0	580.5042436605079	647.1903898473702	0.0	574.0422954206329	638.3334708584928	0.0	604.2564766785943	592.4754364999554	0.0	815.6891582221069	458.908873387099	0.0	889.9345078106436	545.9073860390588	0.0	932.5364460826338	673.2558556726806	0.0	986.2746787983253	700.5194407541803	0.0	980.9911194413335	693.1060257185793	0.0	920.6073090311045	695.4881743641746	0.0	853.3074654826044	282.6354908460871	0.0	862.9334158749512	209.77641958427105	0.0	888.5539809908694	248.84894227694042	0.0	889.1978234392634	281.884760483908	0.0	946.9967431867971	257.2644767199374	0.0	958.5912869634592	238.937381556552	0.0	817.7465069312973	314.86618551781714	0.0	813.1073955601212	397.98485990778045	0.0	857.296730045133	427.4090228257557	0.0
86	2.8666666666666667	800.899008543458	437.26443761465185	0.0	797.327151528392	441.6126245955522	0.0	776.7668615315829	604.0373886581361	0.0	646.9248917773009	600.5051142512395	0.0	607.9894964306458	644.4992253846572	0.0	602.2046130318158	635.3870790682342	0.0	632.1584331077016	588.9589983323053	0.0	802.381155386694	441.11882789432184	0.0	884.1147976257794	545.1310076529653	0.0	929.7686281400227	670.7481455924939	0.0	985.3344655149702	699.1384728797605	0.0	981.8156497515531	691.4272536459267	0.0	918.1918704929965	693.7287862431986	0.0	867.1420387107293	278.9078626803941	0.0	891.4926061540434	209.66934345047522	0.0	909.2468433324858	250.49390289940774	0.0	911.4032293110738	282.0596903014613	0.0	990.5087124278264	287.15871742213966	0.0	1037.3104253888241	286.56691006131297	0.0	817.8906744295189	303.95167593934156	0.0	791.4740647961515	379.7756118149908	0.0	834.4760143762287	413.1585510480496	0.0
87	2.9	804.9466735164139	421.3301991131301	0.0	809.1240542781252	425.83366199971096	0.0	788.1002431091053	588.9095227784919	0.0	663.4428751216751	588.5779919642464	0.0	622.9912788723295	636.7626257639048	0.0	618.6463792579914	627.0490620598794	0.0	649.3702719460925	579.0380799758683	0.0	794.2634049729677	422.6633858469381	0.0	879.6853273941598	543.3079761488204	0.0	927.6211334546928	669.4543841337858	0.0	985.8222563515245	697.5140862473318	0.0	982.593643149354	689.8362061905821	0.0	917.1534199701348	691.474015517659	0.0	878.1751823619156	271.9010977370063	0.0	917.4607848660344	204.53598414763118	0.0	924.4301274627126	249.41157042984747	0.0	923.84325463743	282.96377789116195	0.0	986.4158594427331	328.0054593527547	0.0	1032.834934234831	353.3331736209573	0.0	820.2891398074524	289.9645542634025	0.0	773.4636603561373	362.79126259076753	0.0	815.4659228602752	393.4978784240499	0.0
